<svg xmlns="http://www.w3.org/2000/svg" version="1.1" xmlns:xlink="http://www.w3.org/1999/xlink" xmlns:svgjs="http://svgjs.com/svgjs" width="1440" height="560" preserveAspectRatio="none" viewBox="0 0 1440 560"><g mask="url(&quot;#SvgjsMask1006&quot;)" fill="none"><rect width="1440" height="560" x="0" y="0" fill="rgba(11, 11, 12, 1)"></rect><path d="M-99.68 499.05L-99.68 499.05" stroke="rgba(51, 2, 130, 1)" stroke-width="1.5"></path><path d="M-99.68 499.05L59.39 529.2" stroke="rgba(51, 2, 130, 1)" stroke-width="1.5"></path><path d="M-99.68 499.05L46.17 397.67" stroke="rgba(51, 2, 130, 1)" stroke-width="1.5"></path><path d="M-99.68 499.05L-85.21 685.51" stroke="rgba(51, 2, 130, 1)" stroke-width="1.5"></path><path d="M-85.21 685.51L-85.21 685.51" stroke="rgba(51, 2, 130, 1)" stroke-width="1.5"></path><path d="M-85.21 685.51L42.14 647.88" stroke="rgba(51, 2, 130, 1)" stroke-width="1.5"></path><path d="M-85.21 685.51L59.39 529.2" stroke="rgba(51, 2, 130, 1)" stroke-width="1.5"></path><path d="M46.17 397.67L46.17 397.67" stroke="rgba(51, 2, 130, 1)" stroke-width="1.5"></path><path d="M46.17 397.67L59.39 529.2" stroke="rgba(51, 2, 130, 1)" stroke-width="1.5"></path><path d="M46.17 397.67L221.58 344.75" stroke="rgba(51, 2, 130, 1)" stroke-width="1.5"></path><path d="M46.17 397.67L255.31 506.1" stroke="rgba(51, 2, 130, 1)" stroke-width="1.5"></path><path d="M59.39 529.2L59.39 529.2" stroke="rgba(51, 2, 130, 1)" stroke-width="1.5"></path><path d="M59.39 529.2L42.14 647.88" stroke="rgba(51, 2, 130, 1)" stroke-width="1.5"></path><path d="M59.39 529.2L255.31 506.1" stroke="rgba(51, 2, 130, 1)" stroke-width="1.5"></path><path d="M59.39 529.2L236.49 637.51" stroke="rgba(51, 2, 130, 1)" stroke-width="1.5"></path><path d="M42.14 647.88L42.14 647.88" stroke="rgba(51, 2, 130, 1)" stroke-width="1.5"></path><path d="M42.14 647.88L236.49 637.51" stroke="rgba(51, 2, 130, 1)" stroke-width="1.5"></path><path d="M221.58 344.75L221.58 344.75" stroke="rgba(51, 2, 130, 1)" stroke-width="1.5"></path><path d="M221.58 344.75L255.31 506.1" stroke="rgba(51, 2, 130, 1)" stroke-width="1.5"></path><path d="M221.58 344.75L384.92 368.92" stroke="rgba(51, 2, 130, 1)" stroke-width="1.5"></path><path d="M221.58 344.75L337.89 521.5" stroke="rgba(51, 2, 130, 1)" stroke-width="1.5"></path><path d="M221.58 344.75L59.39 529.2" stroke="rgba(51, 2, 130, 1)" stroke-width="1.5"></path><path d="M221.58 344.75L236.49 637.51" stroke="rgba(51, 2, 130, 1)" stroke-width="1.5"></path><path d="M255.31 506.1L255.31 506.1" stroke="rgba(51, 2, 130, 1)" stroke-width="1.5"></path><path d="M255.31 506.1L337.89 521.5" stroke="rgba(51, 2, 130, 1)" stroke-width="1.5"></path><path d="M255.31 506.1L236.49 637.51" stroke="rgba(51, 2, 130, 1)" stroke-width="1.5"></path><path d="M255.31 506.1L384.92 368.92" stroke="rgba(51, 2, 130, 1)" stroke-width="1.5"></path><path d="M236.49 637.51L236.49 637.51" stroke="rgba(51, 2, 130, 1)" stroke-width="1.5"></path><path d="M236.49 637.51L337.89 521.5" stroke="rgba(51, 2, 130, 1)" stroke-width="1.5"></path><path d="M384.92 368.92L384.92 368.92" stroke="rgba(51, 2, 130, 1)" stroke-width="1.5"></path><path d="M384.92 368.92L515.68 380.24" stroke="rgba(51, 2, 130, 1)" stroke-width="1.5"></path><path d="M384.92 368.92L337.89 521.5" stroke="rgba(51, 2, 130, 1)" stroke-width="1.5"></path><path d="M337.89 521.5L337.89 521.5" stroke="rgba(51, 2, 130, 1)" stroke-width="1.5"></path><path d="M515.68 380.24L515.68 380.24" stroke="rgba(51, 2, 130, 1)" stroke-width="1.5"></path><path d="M515.68 380.24L533.86 544.95" stroke="rgba(51, 2, 130, 1)" stroke-width="1.5"></path><path d="M515.68 380.24L685.85 342.23" stroke="rgba(51, 2, 130, 1)" stroke-width="1.5"></path><path d="M515.68 380.24L682.66 240.34" stroke="rgba(51, 2, 130, 1)" stroke-width="1.5"></path><path d="M515.68 380.24L337.89 521.5" stroke="rgba(51, 2, 130, 1)" stroke-width="1.5"></path><path d="M533.86 544.95L533.86 544.95" stroke="rgba(51, 2, 130, 1)" stroke-width="1.5"></path><path d="M533.86 544.95L502.47 702.66" stroke="rgba(51, 2, 130, 1)" stroke-width="1.5"></path><path d="M533.86 544.95L695.4 547.95" stroke="rgba(51, 2, 130, 1)" stroke-width="1.5"></path><path d="M533.86 544.95L662.36 692.16" stroke="rgba(51, 2, 130, 1)" stroke-width="1.5"></path><path d="M502.47 702.66L502.47 702.66" stroke="rgba(51, 2, 130, 1)" stroke-width="1.5"></path><path d="M502.47 702.66L662.36 692.16" stroke="rgba(51, 2, 130, 1)" stroke-width="1.5"></path><path d="M682.66 240.34L682.66 240.34" stroke="rgba(51, 2, 130, 1)" stroke-width="1.5"></path><path d="M682.66 240.34L685.85 342.23" stroke="rgba(51, 2, 130, 1)" stroke-width="1.5"></path><path d="M682.66 240.34L795.58 209.86" stroke="rgba(51, 2, 130, 1)" stroke-width="1.5"></path><path d="M682.66 240.34L844.85 379.13" stroke="rgba(51, 2, 130, 1)" stroke-width="1.5"></path><path d="M685.85 342.23L685.85 342.23" stroke="rgba(51, 2, 130, 1)" stroke-width="1.5"></path><path d="M685.85 342.23L844.85 379.13" stroke="rgba(51, 2, 130, 1)" stroke-width="1.5"></path><path d="M685.85 342.23L795.58 209.86" stroke="rgba(51, 2, 130, 1)" stroke-width="1.5"></path><path d="M685.85 342.23L790.85 511.78" stroke="rgba(51, 2, 130, 1)" stroke-width="1.5"></path><path d="M685.85 342.23L695.4 547.95" stroke="rgba(51, 2, 130, 1)" stroke-width="1.5"></path><path d="M695.4 547.95L695.4 547.95" stroke="rgba(51, 2, 130, 1)" stroke-width="1.5"></path><path d="M695.4 547.95L790.85 511.78" stroke="rgba(51, 2, 130, 1)" stroke-width="1.5"></path><path d="M695.4 547.95L662.36 692.16" stroke="rgba(51, 2, 130, 1)" stroke-width="1.5"></path><path d="M695.4 547.95L794.41 665.9" stroke="rgba(51, 2, 130, 1)" stroke-width="1.5"></path><path d="M695.4 547.95L844.85 379.13" stroke="rgba(51, 2, 130, 1)" stroke-width="1.5"></path><path d="M662.36 692.16L662.36 692.16" stroke="rgba(51, 2, 130, 1)" stroke-width="1.5"></path><path d="M662.36 692.16L794.41 665.9" stroke="rgba(51, 2, 130, 1)" stroke-width="1.5"></path><path d="M662.36 692.16L790.85 511.78" stroke="rgba(51, 2, 130, 1)" stroke-width="1.5"></path><path d="M662.36 692.16L956.09 649.54" stroke="rgba(51, 2, 130, 1)" stroke-width="1.5"></path><path d="M837.19 91.95L837.19 91.95" stroke="rgba(51, 2, 130, 1)" stroke-width="1.5"></path><path d="M837.19 91.95L795.58 209.86" stroke="rgba(51, 2, 130, 1)" stroke-width="1.5"></path><path d="M837.19 91.95L973.81 55.77" stroke="rgba(51, 2, 130, 1)" stroke-width="1.5"></path><path d="M837.19 91.95L938.15 199.48" stroke="rgba(51, 2, 130, 1)" stroke-width="1.5"></path><path d="M837.19 91.95L682.66 240.34" stroke="rgba(51, 2, 130, 1)" stroke-width="1.5"></path><path d="M837.19 91.95L1002.11 -49.13" stroke="rgba(51, 2, 130, 1)" stroke-width="1.5"></path><path d="M795.58 209.86L795.58 209.86" stroke="rgba(51, 2, 130, 1)" stroke-width="1.5"></path><path d="M795.58 209.86L938.15 199.48" stroke="rgba(51, 2, 130, 1)" stroke-width="1.5"></path><path d="M795.58 209.86L844.85 379.13" stroke="rgba(51, 2, 130, 1)" stroke-width="1.5"></path><path d="M844.85 379.13L844.85 379.13" stroke="rgba(51, 2, 130, 1)" stroke-width="1.5"></path><path d="M844.85 379.13L790.85 511.78" stroke="rgba(51, 2, 130, 1)" stroke-width="1.5"></path><path d="M844.85 379.13L1009.74 347" stroke="rgba(51, 2, 130, 1)" stroke-width="1.5"></path><path d="M790.85 511.78L790.85 511.78" stroke="rgba(51, 2, 130, 1)" stroke-width="1.5"></path><path d="M794.41 665.9L794.41 665.9" stroke="rgba(51, 2, 130, 1)" stroke-width="1.5"></path><path d="M794.41 665.9L790.85 511.78" stroke="rgba(51, 2, 130, 1)" stroke-width="1.5"></path><path d="M794.41 665.9L956.09 649.54" stroke="rgba(51, 2, 130, 1)" stroke-width="1.5"></path><path d="M794.41 665.9L947.58 560.76" stroke="rgba(51, 2, 130, 1)" stroke-width="1.5"></path><path d="M1002.11 -49.13L1002.11 -49.13" stroke="rgba(51, 2, 130, 1)" stroke-width="1.5"></path><path d="M1002.11 -49.13L973.81 55.77" stroke="rgba(51, 2, 130, 1)" stroke-width="1.5"></path><path d="M1002.11 -49.13L1109.4 -75.71" stroke="rgba(51, 2, 130, 1)" stroke-width="1.5"></path><path d="M1002.11 -49.13L1120.58 90.64" stroke="rgba(51, 2, 130, 1)" stroke-width="1.5"></path><path d="M973.81 55.77L973.81 55.77" stroke="rgba(51, 2, 130, 1)" stroke-width="1.5"></path><path d="M973.81 55.77L938.15 199.48" stroke="rgba(51, 2, 130, 1)" stroke-width="1.5"></path><path d="M973.81 55.77L1120.58 90.64" stroke="rgba(51, 2, 130, 1)" stroke-width="1.5"></path><path d="M973.81 55.77L1109.4 -75.71" stroke="rgba(51, 2, 130, 1)" stroke-width="1.5"></path><path d="M973.81 55.77L795.58 209.86" stroke="rgba(51, 2, 130, 1)" stroke-width="1.5"></path><path d="M938.15 199.48L938.15 199.48" stroke="rgba(51, 2, 130, 1)" stroke-width="1.5"></path><path d="M1009.74 347L1009.74 347" stroke="rgba(51, 2, 130, 1)" stroke-width="1.5"></path><path d="M1009.74 347L1157.37 378.93" stroke="rgba(51, 2, 130, 1)" stroke-width="1.5"></path><path d="M1009.74 347L1142.52 253.68" stroke="rgba(51, 2, 130, 1)" stroke-width="1.5"></path><path d="M947.58 560.76L947.58 560.76" stroke="rgba(51, 2, 130, 1)" stroke-width="1.5"></path><path d="M947.58 560.76L956.09 649.54" stroke="rgba(51, 2, 130, 1)" stroke-width="1.5"></path><path d="M947.58 560.76L790.85 511.78" stroke="rgba(51, 2, 130, 1)" stroke-width="1.5"></path><path d="M947.58 560.76L1131.79 545.1" stroke="rgba(51, 2, 130, 1)" stroke-width="1.5"></path><path d="M956.09 649.54L956.09 649.54" stroke="rgba(51, 2, 130, 1)" stroke-width="1.5"></path><path d="M1109.4 -75.71L1109.4 -75.71" stroke="rgba(51, 2, 130, 1)" stroke-width="1.5"></path><path d="M1109.4 -75.71L1265.95 -59.92" stroke="rgba(51, 2, 130, 1)" stroke-width="1.5"></path><path d="M1109.4 -75.71L1120.58 90.64" stroke="rgba(51, 2, 130, 1)" stroke-width="1.5"></path><path d="M1109.4 -75.71L1284.54 43.66" stroke="rgba(51, 2, 130, 1)" stroke-width="1.5"></path><path d="M1109.4 -75.71L837.19 91.95" stroke="rgba(51, 2, 130, 1)" stroke-width="1.5"></path><path d="M1120.58 90.64L1120.58 90.64" stroke="rgba(51, 2, 130, 1)" stroke-width="1.5"></path><path d="M1120.58 90.64L1142.52 253.68" stroke="rgba(51, 2, 130, 1)" stroke-width="1.5"></path><path d="M1142.52 253.68L1142.52 253.68" stroke="rgba(51, 2, 130, 1)" stroke-width="1.5"></path><path d="M1142.52 253.68L1157.37 378.93" stroke="rgba(51, 2, 130, 1)" stroke-width="1.5"></path><path d="M1142.52 253.68L1252.82 354.73" stroke="rgba(51, 2, 130, 1)" stroke-width="1.5"></path><path d="M1157.37 378.93L1157.37 378.93" stroke="rgba(51, 2, 130, 1)" stroke-width="1.5"></path><path d="M1157.37 378.93L1252.82 354.73" stroke="rgba(51, 2, 130, 1)" stroke-width="1.5"></path><path d="M1157.37 378.93L1131.79 545.1" stroke="rgba(51, 2, 130, 1)" stroke-width="1.5"></path><path d="M1157.37 378.93L1303.32 521.99" stroke="rgba(51, 2, 130, 1)" stroke-width="1.5"></path><path d="M1157.37 378.93L1130.52 647.61" stroke="rgba(51, 2, 130, 1)" stroke-width="1.5"></path><path d="M1131.79 545.1L1131.79 545.1" stroke="rgba(51, 2, 130, 1)" stroke-width="1.5"></path><path d="M1131.79 545.1L1130.52 647.61" stroke="rgba(51, 2, 130, 1)" stroke-width="1.5"></path><path d="M1131.79 545.1L1303.32 521.99" stroke="rgba(51, 2, 130, 1)" stroke-width="1.5"></path><path d="M1131.79 545.1L956.09 649.54" stroke="rgba(51, 2, 130, 1)" stroke-width="1.5"></path><path d="M1131.79 545.1L1253.45 712.07" stroke="rgba(51, 2, 130, 1)" stroke-width="1.5"></path><path d="M1130.52 647.61L1130.52 647.61" stroke="rgba(51, 2, 130, 1)" stroke-width="1.5"></path><path d="M1130.52 647.61L1253.45 712.07" stroke="rgba(51, 2, 130, 1)" stroke-width="1.5"></path><path d="M1130.52 647.61L956.09 649.54" stroke="rgba(51, 2, 130, 1)" stroke-width="1.5"></path><path d="M1265.95 -59.92L1265.95 -59.92" stroke="rgba(51, 2, 130, 1)" stroke-width="1.5"></path><path d="M1265.95 -59.92L1284.54 43.66" stroke="rgba(51, 2, 130, 1)" stroke-width="1.5"></path><path d="M1284.54 43.66L1284.54 43.66" stroke="rgba(51, 2, 130, 1)" stroke-width="1.5"></path><path d="M1284.54 43.66L1395.79 95.69" stroke="rgba(51, 2, 130, 1)" stroke-width="1.5"></path><path d="M1284.54 43.66L1120.58 90.64" stroke="rgba(51, 2, 130, 1)" stroke-width="1.5"></path><path d="M1284.54 43.66L1419.9 219.14" stroke="rgba(51, 2, 130, 1)" stroke-width="1.5"></path><path d="M1252.82 354.73L1252.82 354.73" stroke="rgba(51, 2, 130, 1)" stroke-width="1.5"></path><path d="M1303.32 521.99L1303.32 521.99" stroke="rgba(51, 2, 130, 1)" stroke-width="1.5"></path><path d="M1303.32 521.99L1447.28 559.06" stroke="rgba(51, 2, 130, 1)" stroke-width="1.5"></path><path d="M1253.45 712.07L1253.45 712.07" stroke="rgba(51, 2, 130, 1)" stroke-width="1.5"></path><path d="M1253.45 712.07L1303.32 521.99" stroke="rgba(51, 2, 130, 1)" stroke-width="1.5"></path><path d="M1395.79 95.69L1395.79 95.69" stroke="rgba(51, 2, 130, 1)" stroke-width="1.5"></path><path d="M1395.79 95.69L1419.9 219.14" stroke="rgba(51, 2, 130, 1)" stroke-width="1.5"></path><path d="M1395.79 95.69L1589.87 41.62" stroke="rgba(51, 2, 130, 1)" stroke-width="1.5"></path><path d="M1395.79 95.69L1265.95 -59.92" stroke="rgba(51, 2, 130, 1)" stroke-width="1.5"></path><path d="M1395.79 95.69L1546.35 -61.8" stroke="rgba(51, 2, 130, 1)" stroke-width="1.5"></path><path d="M1419.9 219.14L1419.9 219.14" stroke="rgba(51, 2, 130, 1)" stroke-width="1.5"></path><path d="M1419.9 219.14L1439.72 354.32" stroke="rgba(51, 2, 130, 1)" stroke-width="1.5"></path><path d="M1419.9 219.14L1565.52 244.33" stroke="rgba(51, 2, 130, 1)" stroke-width="1.5"></path><path d="M1419.9 219.14L1252.82 354.73" stroke="rgba(51, 2, 130, 1)" stroke-width="1.5"></path><path d="M1419.9 219.14L1586.95 357.99" stroke="rgba(51, 2, 130, 1)" stroke-width="1.5"></path><path d="M1439.72 354.32L1439.72 354.32" stroke="rgba(51, 2, 130, 1)" stroke-width="1.5"></path><path d="M1439.72 354.32L1586.95 357.99" stroke="rgba(51, 2, 130, 1)" stroke-width="1.5"></path><path d="M1439.72 354.32L1565.52 244.33" stroke="rgba(51, 2, 130, 1)" stroke-width="1.5"></path><path d="M1439.72 354.32L1252.82 354.73" stroke="rgba(51, 2, 130, 1)" stroke-width="1.5"></path><path d="M1447.28 559.06L1447.28 559.06" stroke="rgba(51, 2, 130, 1)" stroke-width="1.5"></path><path d="M1447.28 559.06L1582.06 550.8" stroke="rgba(51, 2, 130, 1)" stroke-width="1.5"></path><path d="M1447.28 559.06L1452.06 698.63" stroke="rgba(51, 2, 130, 1)" stroke-width="1.5"></path><path d="M1447.28 559.06L1538.97 691.34" stroke="rgba(51, 2, 130, 1)" stroke-width="1.5"></path><path d="M1447.28 559.06L1439.72 354.32" stroke="rgba(51, 2, 130, 1)" stroke-width="1.5"></path><path d="M1452.06 698.63L1452.06 698.63" stroke="rgba(51, 2, 130, 1)" stroke-width="1.5"></path><path d="M1452.06 698.63L1538.97 691.34" stroke="rgba(51, 2, 130, 1)" stroke-width="1.5"></path><path d="M1452.06 698.63L1582.06 550.8" stroke="rgba(51, 2, 130, 1)" stroke-width="1.5"></path><path d="M1546.35 -61.8L1546.35 -61.8" stroke="rgba(51, 2, 130, 1)" stroke-width="1.5"></path><path d="M1546.35 -61.8L1589.87 41.62" stroke="rgba(51, 2, 130, 1)" stroke-width="1.5"></path><path d="M1546.35 -61.8L1265.95 -59.92" stroke="rgba(51, 2, 130, 1)" stroke-width="1.5"></path><path d="M1589.87 41.62L1589.87 41.62" stroke="rgba(51, 2, 130, 1)" stroke-width="1.5"></path><path d="M1565.52 244.33L1565.52 244.33" stroke="rgba(51, 2, 130, 1)" stroke-width="1.5"></path><path d="M1565.52 244.33L1586.95 357.99" stroke="rgba(51, 2, 130, 1)" stroke-width="1.5"></path><path d="M1565.52 244.33L1589.87 41.62" stroke="rgba(51, 2, 130, 1)" stroke-width="1.5"></path><path d="M1586.95 357.99L1586.95 357.99" stroke="rgba(51, 2, 130, 1)" stroke-width="1.5"></path><path d="M1582.06 550.8L1582.06 550.8" stroke="rgba(51, 2, 130, 1)" stroke-width="1.5"></path><path d="M1582.06 550.8L1538.97 691.34" stroke="rgba(51, 2, 130, 1)" stroke-width="1.5"></path><path d="M1582.06 550.8L1586.95 357.99" stroke="rgba(51, 2, 130, 1)" stroke-width="1.5"></path><path d="M1538.97 691.34L1538.97 691.34" stroke="rgba(51, 2, 130, 1)" stroke-width="1.5"></path><path d="M1538.97 691.34L1253.45 712.07" stroke="rgba(51, 2, 130, 1)" stroke-width="1.5"></path><path d="M1538.97 691.34L1303.32 521.99" stroke="rgba(51, 2, 130, 1)" stroke-width="1.5"></path><circle r="5" cx="-99.68" cy="499.05" fill="rgba(51, 2, 130, 1)"></circle><circle r="5" cx="-85.21" cy="685.51" fill="rgba(51, 2, 130, 1)"></circle><circle r="5" cx="46.17" cy="397.67" fill="rgba(51, 2, 130, 1)"></circle><circle r="5" cx="59.39" cy="529.2" fill="rgba(51, 2, 130, 1)"></circle><circle r="5" cx="42.14" cy="647.88" fill="rgba(51, 2, 130, 1)"></circle><circle r="5" cx="221.58" cy="344.75" fill="rgba(51, 2, 130, 1)"></circle><circle r="5" cx="255.31" cy="506.1" fill="rgba(51, 2, 130, 1)"></circle><circle r="5" cx="236.49" cy="637.51" fill="rgba(51, 2, 130, 1)"></circle><circle r="5" cx="384.92" cy="368.92" fill="rgba(51, 2, 130, 1)"></circle><circle r="5" cx="337.89" cy="521.5" fill="rgba(51, 2, 130, 1)"></circle><circle r="5" cx="515.68" cy="380.24" fill="rgba(51, 2, 130, 1)"></circle><circle r="5" cx="533.86" cy="544.95" fill="rgba(51, 2, 130, 1)"></circle><circle r="5" cx="502.47" cy="702.66" fill="rgba(51, 2, 130, 1)"></circle><circle r="5" cx="682.66" cy="240.34" fill="rgba(51, 2, 130, 1)"></circle><circle r="5" cx="685.85" cy="342.23" fill="rgba(51, 2, 130, 1)"></circle><circle r="5" cx="695.4" cy="547.95" fill="rgba(51, 2, 130, 1)"></circle><circle r="5" cx="662.36" cy="692.16" fill="rgba(51, 2, 130, 1)"></circle><circle r="5" cx="837.19" cy="91.95" fill="rgba(51, 2, 130, 1)"></circle><circle r="5" cx="795.58" cy="209.86" fill="rgba(51, 2, 130, 1)"></circle><circle r="5" cx="844.85" cy="379.13" fill="rgba(51, 2, 130, 1)"></circle><circle r="5" cx="790.85" cy="511.78" fill="rgba(51, 2, 130, 1)"></circle><circle r="5" cx="794.41" cy="665.9" fill="rgba(51, 2, 130, 1)"></circle><circle r="5" cx="1002.11" cy="-49.13" fill="rgba(51, 2, 130, 1)"></circle><circle r="5" cx="973.81" cy="55.77" fill="rgba(51, 2, 130, 1)"></circle><circle r="5" cx="938.15" cy="199.48" fill="rgba(51, 2, 130, 1)"></circle><circle r="5" cx="1009.74" cy="347" fill="rgba(51, 2, 130, 1)"></circle><circle r="5" cx="947.58" cy="560.76" fill="rgba(51, 2, 130, 1)"></circle><circle r="5" cx="956.09" cy="649.54" fill="rgba(51, 2, 130, 1)"></circle><circle r="5" cx="1109.4" cy="-75.71" fill="rgba(51, 2, 130, 1)"></circle><circle r="5" cx="1120.58" cy="90.64" fill="rgba(51, 2, 130, 1)"></circle><circle r="5" cx="1142.52" cy="253.68" fill="rgba(51, 2, 130, 1)"></circle><circle r="5" cx="1157.37" cy="378.93" fill="rgba(51, 2, 130, 1)"></circle><circle r="5" cx="1131.79" cy="545.1" fill="rgba(51, 2, 130, 1)"></circle><circle r="5" cx="1130.52" cy="647.61" fill="rgba(51, 2, 130, 1)"></circle><circle r="5" cx="1265.95" cy="-59.92" fill="rgba(51, 2, 130, 1)"></circle><circle r="5" cx="1284.54" cy="43.66" fill="rgba(51, 2, 130, 1)"></circle><circle r="5" cx="1252.82" cy="354.73" fill="rgba(51, 2, 130, 1)"></circle><circle r="5" cx="1303.32" cy="521.99" fill="rgba(51, 2, 130, 1)"></circle><circle r="5" cx="1253.45" cy="712.07" fill="rgba(51, 2, 130, 1)"></circle><circle r="5" cx="1395.79" cy="95.69" fill="rgba(51, 2, 130, 1)"></circle><circle r="5" cx="1419.9" cy="219.14" fill="rgba(51, 2, 130, 1)"></circle><circle r="5" cx="1439.72" cy="354.32" fill="rgba(51, 2, 130, 1)"></circle><circle r="5" cx="1447.28" cy="559.06" fill="rgba(51, 2, 130, 1)"></circle><circle r="5" cx="1452.06" cy="698.63" fill="rgba(51, 2, 130, 1)"></circle><circle r="5" cx="1546.35" cy="-61.8" fill="rgba(51, 2, 130, 1)"></circle><circle r="5" cx="1589.87" cy="41.62" fill="rgba(51, 2, 130, 1)"></circle><circle r="5" cx="1565.52" cy="244.33" fill="rgba(51, 2, 130, 1)"></circle><circle r="5" cx="1586.95" cy="357.99" fill="rgba(51, 2, 130, 1)"></circle><circle r="5" cx="1582.06" cy="550.8" fill="rgba(51, 2, 130, 1)"></circle><circle r="5" cx="1538.97" cy="691.34" fill="rgba(51, 2, 130, 1)"></circle><path d="M95.62 498.26L95.62 498.26" stroke="hsl(259.20000000000005, 97.4%, 38.5%)" stroke-width="1.5"></path><path d="M95.62 498.26L217.85 524.96" stroke="hsl(259.20000000000005, 97.4%, 38.5%)" stroke-width="1.5"></path><path d="M95.62 498.26L-90.02 519.61" stroke="hsl(259.20000000000005, 97.4%, 38.5%)" stroke-width="1.5"></path><path d="M95.62 498.26L93.81 711.78" stroke="hsl(259.20000000000005, 97.4%, 38.5%)" stroke-width="1.5"></path><path d="M664.99 495.25L664.99 495.25" stroke="hsl(259.20000000000005, 97.4%, 38.5%)" stroke-width="1.5"></path><path d="M664.99 495.25L638.58 374.23" stroke="hsl(259.20000000000005, 97.4%, 38.5%)" stroke-width="1.5"></path><path d="M664.99 495.25L542.69 539.75" stroke="hsl(259.20000000000005, 97.4%, 38.5%)" stroke-width="1.5"></path><path d="M664.99 495.25L694.04 645.89" stroke="hsl(259.20000000000005, 97.4%, 38.5%)" stroke-width="1.5"></path><path d="M694.04 645.89L694.04 645.89" stroke="hsl(259.20000000000005, 97.4%, 38.5%)" stroke-width="1.5"></path><path d="M694.04 645.89L554.14 690.22" stroke="hsl(259.20000000000005, 97.4%, 38.5%)" stroke-width="1.5"></path><path d="M694.04 645.89L850.88 680.02" stroke="hsl(259.20000000000005, 97.4%, 38.5%)" stroke-width="1.5"></path><path d="M694.04 645.89L542.69 539.75" stroke="hsl(259.20000000000005, 97.4%, 38.5%)" stroke-width="1.5"></path><path d="M850.88 680.02L850.88 680.02" stroke="hsl(259.20000000000005, 97.4%, 38.5%)" stroke-width="1.5"></path><path d="M850.88 680.02L954.72 653.11" stroke="hsl(259.20000000000005, 97.4%, 38.5%)" stroke-width="1.5"></path><path d="M850.88 680.02L860.11 529.25" stroke="hsl(259.20000000000005, 97.4%, 38.5%)" stroke-width="1.5"></path><path d="M850.88 680.02L1089.5 686.37" stroke="hsl(259.20000000000005, 97.4%, 38.5%)" stroke-width="1.5"></path><path d="M954.72 653.11L954.72 653.11" stroke="hsl(259.20000000000005, 97.4%, 38.5%)" stroke-width="1.5"></path><path d="M954.72 653.11L1089.5 686.37" stroke="hsl(259.20000000000005, 97.4%, 38.5%)" stroke-width="1.5"></path><path d="M954.72 653.11L860.11 529.25" stroke="hsl(259.20000000000005, 97.4%, 38.5%)" stroke-width="1.5"></path><path d="M954.72 653.11L1097.24 500.73" stroke="hsl(259.20000000000005, 97.4%, 38.5%)" stroke-width="1.5"></path><path d="M954.72 653.11L694.04 645.89" stroke="hsl(259.20000000000005, 97.4%, 38.5%)" stroke-width="1.5"></path><path d="M1110.42 206.28L1110.42 206.28" stroke="hsl(259.20000000000005, 97.4%, 38.5%)" stroke-width="1.5"></path><path d="M1110.42 206.28L1157.3 356.27" stroke="hsl(259.20000000000005, 97.4%, 38.5%)" stroke-width="1.5"></path><path d="M1110.42 206.28L980.91 340.64" stroke="hsl(259.20000000000005, 97.4%, 38.5%)" stroke-width="1.5"></path><path d="M1110.42 206.28L1301.86 204.24" stroke="hsl(259.20000000000005, 97.4%, 38.5%)" stroke-width="1.5"></path><path d="M1110.42 206.28L1247.85 59.4" stroke="hsl(259.20000000000005, 97.4%, 38.5%)" stroke-width="1.5"></path><path d="M1110.42 206.28L1272.4 340.5" stroke="hsl(259.20000000000005, 97.4%, 38.5%)" stroke-width="1.5"></path><path d="M1157.3 356.27L1157.3 356.27" stroke="hsl(259.20000000000005, 97.4%, 38.5%)" stroke-width="1.5"></path><path d="M1157.3 356.27L1272.4 340.5" stroke="hsl(259.20000000000005, 97.4%, 38.5%)" stroke-width="1.5"></path><path d="M1157.3 356.27L1097.24 500.73" stroke="hsl(259.20000000000005, 97.4%, 38.5%)" stroke-width="1.5"></path><path d="M1157.3 356.27L980.91 340.64" stroke="hsl(259.20000000000005, 97.4%, 38.5%)" stroke-width="1.5"></path><path d="M1247.85 59.4L1247.85 59.4" stroke="hsl(259.20000000000005, 97.4%, 38.5%)" stroke-width="1.5"></path><path d="M1247.85 59.4L1266.21 -67.99" stroke="hsl(259.20000000000005, 97.4%, 38.5%)" stroke-width="1.5"></path><path d="M1247.85 59.4L1301.86 204.24" stroke="hsl(259.20000000000005, 97.4%, 38.5%)" stroke-width="1.5"></path><path d="M1247.85 59.4L1415.53 -51.1" stroke="hsl(259.20000000000005, 97.4%, 38.5%)" stroke-width="1.5"></path><path d="M1247.85 59.4L1452.28 107.52" stroke="hsl(259.20000000000005, 97.4%, 38.5%)" stroke-width="1.5"></path><path d="M1301.86 204.24L1301.86 204.24" stroke="hsl(259.20000000000005, 97.4%, 38.5%)" stroke-width="1.5"></path><path d="M1301.86 204.24L1272.4 340.5" stroke="hsl(259.20000000000005, 97.4%, 38.5%)" stroke-width="1.5"></path><path d="M1301.86 204.24L1445.38 223.04" stroke="hsl(259.20000000000005, 97.4%, 38.5%)" stroke-width="1.5"></path><path d="M1301.86 204.24L1452.28 107.52" stroke="hsl(259.20000000000005, 97.4%, 38.5%)" stroke-width="1.5"></path><path d="M1301.86 204.24L1415.21 351.46" stroke="hsl(259.20000000000005, 97.4%, 38.5%)" stroke-width="1.5"></path><path d="M1272.4 340.5L1272.4 340.5" stroke="hsl(259.20000000000005, 97.4%, 38.5%)" stroke-width="1.5"></path><path d="M1272.4 340.5L1415.21 351.46" stroke="hsl(259.20000000000005, 97.4%, 38.5%)" stroke-width="1.5"></path><path d="M1272.4 340.5L1293.57 489.56" stroke="hsl(259.20000000000005, 97.4%, 38.5%)" stroke-width="1.5"></path><path d="M1272.4 340.5L1445.38 223.04" stroke="hsl(259.20000000000005, 97.4%, 38.5%)" stroke-width="1.5"></path><path d="M1452.28 107.52L1452.28 107.52" stroke="hsl(259.20000000000005, 97.4%, 38.5%)" stroke-width="1.5"></path><path d="M1452.28 107.52L1544.27 42.56" stroke="hsl(259.20000000000005, 97.4%, 38.5%)" stroke-width="1.5"></path><path d="M1452.28 107.52L1445.38 223.04" stroke="hsl(259.20000000000005, 97.4%, 38.5%)" stroke-width="1.5"></path><path d="M1390.04 519.1L1390.04 519.1" stroke="hsl(259.20000000000005, 97.4%, 38.5%)" stroke-width="1.5"></path><path d="M1390.04 519.1L1293.57 489.56" stroke="hsl(259.20000000000005, 97.4%, 38.5%)" stroke-width="1.5"></path><path d="M1390.04 519.1L1311.41 661.75" stroke="hsl(259.20000000000005, 97.4%, 38.5%)" stroke-width="1.5"></path><path d="M1390.04 519.1L1415.21 351.46" stroke="hsl(259.20000000000005, 97.4%, 38.5%)" stroke-width="1.5"></path><path d="M1390.04 519.1L1439.61 705.69" stroke="hsl(259.20000000000005, 97.4%, 38.5%)" stroke-width="1.5"></path><path d="M1544.27 42.56L1544.27 42.56" stroke="hsl(259.20000000000005, 97.4%, 38.5%)" stroke-width="1.5"></path><path d="M1544.27 42.56L1581.62 -54.87" stroke="hsl(259.20000000000005, 97.4%, 38.5%)" stroke-width="1.5"></path><path d="M1544.27 42.56L1415.53 -51.1" stroke="hsl(259.20000000000005, 97.4%, 38.5%)" stroke-width="1.5"></path><path d="M1544.27 42.56L1538.36 233.99" stroke="hsl(259.20000000000005, 97.4%, 38.5%)" stroke-width="1.5"></path><path d="M1544.27 42.56L1445.38 223.04" stroke="hsl(259.20000000000005, 97.4%, 38.5%)" stroke-width="1.5"></path><path d="M1544.27 42.56L1301.86 204.24" stroke="hsl(259.20000000000005, 97.4%, 38.5%)" stroke-width="1.5"></path><path d="M-90.02 519.61L-90.02 519.61" stroke="hsl(259.20000000000005, 97.4%, 38.5%)" stroke-width="1.5"></path><path d="M-90.02 519.61L-94.92 650.15" stroke="hsl(259.20000000000005, 97.4%, 38.5%)" stroke-width="1.5"></path><path d="M-90.02 519.61L93.81 711.78" stroke="hsl(259.20000000000005, 97.4%, 38.5%)" stroke-width="1.5"></path><path d="M-90.02 519.61L217.85 524.96" stroke="hsl(259.20000000000005, 97.4%, 38.5%)" stroke-width="1.5"></path><path d="M-90.02 519.61L221.85 682.82" stroke="hsl(259.20000000000005, 97.4%, 38.5%)" stroke-width="1.5"></path><path d="M-94.92 650.15L-94.92 650.15" stroke="hsl(259.20000000000005, 97.4%, 38.5%)" stroke-width="1.5"></path><path d="M-94.92 650.15L93.81 711.78" stroke="hsl(259.20000000000005, 97.4%, 38.5%)" stroke-width="1.5"></path><path d="M93.81 711.78L93.81 711.78" stroke="hsl(259.20000000000005, 97.4%, 38.5%)" stroke-width="1.5"></path><path d="M93.81 711.78L221.85 682.82" stroke="hsl(259.20000000000005, 97.4%, 38.5%)" stroke-width="1.5"></path><path d="M93.81 711.78L217.85 524.96" stroke="hsl(259.20000000000005, 97.4%, 38.5%)" stroke-width="1.5"></path><path d="M217.85 524.96L217.85 524.96" stroke="hsl(259.20000000000005, 97.4%, 38.5%)" stroke-width="1.5"></path><path d="M217.85 524.96L371.59 553.51" stroke="hsl(259.20000000000005, 97.4%, 38.5%)" stroke-width="1.5"></path><path d="M217.85 524.96L221.85 682.82" stroke="hsl(259.20000000000005, 97.4%, 38.5%)" stroke-width="1.5"></path><path d="M221.85 682.82L221.85 682.82" stroke="hsl(259.20000000000005, 97.4%, 38.5%)" stroke-width="1.5"></path><path d="M221.85 682.82L346.15 709.17" stroke="hsl(259.20000000000005, 97.4%, 38.5%)" stroke-width="1.5"></path><path d="M371.59 553.51L371.59 553.51" stroke="hsl(259.20000000000005, 97.4%, 38.5%)" stroke-width="1.5"></path><path d="M371.59 553.51L346.15 709.17" stroke="hsl(259.20000000000005, 97.4%, 38.5%)" stroke-width="1.5"></path><path d="M371.59 553.51L542.69 539.75" stroke="hsl(259.20000000000005, 97.4%, 38.5%)" stroke-width="1.5"></path><path d="M371.59 553.51L221.85 682.82" stroke="hsl(259.20000000000005, 97.4%, 38.5%)" stroke-width="1.5"></path><path d="M371.59 553.51L554.14 690.22" stroke="hsl(259.20000000000005, 97.4%, 38.5%)" stroke-width="1.5"></path><path d="M371.59 553.51L95.62 498.26" stroke="hsl(259.20000000000005, 97.4%, 38.5%)" stroke-width="1.5"></path><path d="M346.15 709.17L346.15 709.17" stroke="hsl(259.20000000000005, 97.4%, 38.5%)" stroke-width="1.5"></path><path d="M542.69 539.75L542.69 539.75" stroke="hsl(259.20000000000005, 97.4%, 38.5%)" stroke-width="1.5"></path><path d="M542.69 539.75L554.14 690.22" stroke="hsl(259.20000000000005, 97.4%, 38.5%)" stroke-width="1.5"></path><path d="M542.69 539.75L638.58 374.23" stroke="hsl(259.20000000000005, 97.4%, 38.5%)" stroke-width="1.5"></path><path d="M554.14 690.22L554.14 690.22" stroke="hsl(259.20000000000005, 97.4%, 38.5%)" stroke-width="1.5"></path><path d="M554.14 690.22L346.15 709.17" stroke="hsl(259.20000000000005, 97.4%, 38.5%)" stroke-width="1.5"></path><path d="M554.14 690.22L664.99 495.25" stroke="hsl(259.20000000000005, 97.4%, 38.5%)" stroke-width="1.5"></path><path d="M554.14 690.22L850.88 680.02" stroke="hsl(259.20000000000005, 97.4%, 38.5%)" stroke-width="1.5"></path><path d="M638.58 374.23L638.58 374.23" stroke="hsl(259.20000000000005, 97.4%, 38.5%)" stroke-width="1.5"></path><path d="M853.78 372.45L853.78 372.45" stroke="hsl(259.20000000000005, 97.4%, 38.5%)" stroke-width="1.5"></path><path d="M853.78 372.45L980.91 340.64" stroke="hsl(259.20000000000005, 97.4%, 38.5%)" stroke-width="1.5"></path><path d="M853.78 372.45L860.11 529.25" stroke="hsl(259.20000000000005, 97.4%, 38.5%)" stroke-width="1.5"></path><path d="M860.11 529.25L860.11 529.25" stroke="hsl(259.20000000000005, 97.4%, 38.5%)" stroke-width="1.5"></path><path d="M860.11 529.25L664.99 495.25" stroke="hsl(259.20000000000005, 97.4%, 38.5%)" stroke-width="1.5"></path><path d="M980.91 340.64L980.91 340.64" stroke="hsl(259.20000000000005, 97.4%, 38.5%)" stroke-width="1.5"></path><path d="M980.91 340.64L1097.24 500.73" stroke="hsl(259.20000000000005, 97.4%, 38.5%)" stroke-width="1.5"></path><path d="M1097.24 500.73L1097.24 500.73" stroke="hsl(259.20000000000005, 97.4%, 38.5%)" stroke-width="1.5"></path><path d="M1097.24 500.73L1089.5 686.37" stroke="hsl(259.20000000000005, 97.4%, 38.5%)" stroke-width="1.5"></path><path d="M1097.24 500.73L1293.57 489.56" stroke="hsl(259.20000000000005, 97.4%, 38.5%)" stroke-width="1.5"></path><path d="M1089.5 686.37L1089.5 686.37" stroke="hsl(259.20000000000005, 97.4%, 38.5%)" stroke-width="1.5"></path><path d="M1089.5 686.37L1311.41 661.75" stroke="hsl(259.20000000000005, 97.4%, 38.5%)" stroke-width="1.5"></path><path d="M1266.21 -67.99L1266.21 -67.99" stroke="hsl(259.20000000000005, 97.4%, 38.5%)" stroke-width="1.5"></path><path d="M1266.21 -67.99L1415.53 -51.1" stroke="hsl(259.20000000000005, 97.4%, 38.5%)" stroke-width="1.5"></path><path d="M1293.57 489.56L1293.57 489.56" stroke="hsl(259.20000000000005, 97.4%, 38.5%)" stroke-width="1.5"></path><path d="M1293.57 489.56L1311.41 661.75" stroke="hsl(259.20000000000005, 97.4%, 38.5%)" stroke-width="1.5"></path><path d="M1293.57 489.56L1415.21 351.46" stroke="hsl(259.20000000000005, 97.4%, 38.5%)" stroke-width="1.5"></path><path d="M1311.41 661.75L1311.41 661.75" stroke="hsl(259.20000000000005, 97.4%, 38.5%)" stroke-width="1.5"></path><path d="M1311.41 661.75L1439.61 705.69" stroke="hsl(259.20000000000005, 97.4%, 38.5%)" stroke-width="1.5"></path><path d="M1415.53 -51.1L1415.53 -51.1" stroke="hsl(259.20000000000005, 97.4%, 38.5%)" stroke-width="1.5"></path><path d="M1415.53 -51.1L1452.28 107.52" stroke="hsl(259.20000000000005, 97.4%, 38.5%)" stroke-width="1.5"></path><path d="M1445.38 223.04L1445.38 223.04" stroke="hsl(259.20000000000005, 97.4%, 38.5%)" stroke-width="1.5"></path><path d="M1445.38 223.04L1538.36 233.99" stroke="hsl(259.20000000000005, 97.4%, 38.5%)" stroke-width="1.5"></path><path d="M1415.21 351.46L1415.21 351.46" stroke="hsl(259.20000000000005, 97.4%, 38.5%)" stroke-width="1.5"></path><path d="M1415.21 351.46L1445.38 223.04" stroke="hsl(259.20000000000005, 97.4%, 38.5%)" stroke-width="1.5"></path><path d="M1439.61 705.69L1439.61 705.69" stroke="hsl(259.20000000000005, 97.4%, 38.5%)" stroke-width="1.5"></path><path d="M1439.61 705.69L1544 659.3" stroke="hsl(259.20000000000005, 97.4%, 38.5%)" stroke-width="1.5"></path><path d="M1581.62 -54.87L1581.62 -54.87" stroke="hsl(259.20000000000005, 97.4%, 38.5%)" stroke-width="1.5"></path><path d="M1581.62 -54.87L1415.53 -51.1" stroke="hsl(259.20000000000005, 97.4%, 38.5%)" stroke-width="1.5"></path><path d="M1538.36 233.99L1538.36 233.99" stroke="hsl(259.20000000000005, 97.4%, 38.5%)" stroke-width="1.5"></path><path d="M1538.36 233.99L1582.08 355.2" stroke="hsl(259.20000000000005, 97.4%, 38.5%)" stroke-width="1.5"></path><path d="M1582.08 355.2L1582.08 355.2" stroke="hsl(259.20000000000005, 97.4%, 38.5%)" stroke-width="1.5"></path><path d="M1582.08 355.2L1415.21 351.46" stroke="hsl(259.20000000000005, 97.4%, 38.5%)" stroke-width="1.5"></path><path d="M1582.08 355.2L1445.38 223.04" stroke="hsl(259.20000000000005, 97.4%, 38.5%)" stroke-width="1.5"></path><path d="M1582.08 355.2L1390.04 519.1" stroke="hsl(259.20000000000005, 97.4%, 38.5%)" stroke-width="1.5"></path><path d="M1544 659.3L1544 659.3" stroke="hsl(259.20000000000005, 97.4%, 38.5%)" stroke-width="1.5"></path><path d="M1544 659.3L1390.04 519.1" stroke="hsl(259.20000000000005, 97.4%, 38.5%)" stroke-width="1.5"></path><path d="M1544 659.3L1311.41 661.75" stroke="hsl(259.20000000000005, 97.4%, 38.5%)" stroke-width="1.5"></path><circle r="25" cx="95.62" cy="498.26" fill="url(#SvgjsRadialGradient1007)"></circle><circle r="25" cx="664.99" cy="495.25" fill="url(#SvgjsRadialGradient1007)"></circle><circle r="25" cx="694.04" cy="645.89" fill="url(#SvgjsRadialGradient1007)"></circle><circle r="25" cx="850.88" cy="680.02" fill="url(#SvgjsRadialGradient1007)"></circle><circle r="25" cx="954.72" cy="653.11" fill="url(#SvgjsRadialGradient1007)"></circle><circle r="25" cx="1110.42" cy="206.28" fill="url(#SvgjsRadialGradient1007)"></circle><circle r="25" cx="1157.3" cy="356.27" fill="url(#SvgjsRadialGradient1007)"></circle><circle r="25" cx="1247.85" cy="59.4" fill="url(#SvgjsRadialGradient1007)"></circle><circle r="25" cx="1301.86" cy="204.24" fill="url(#SvgjsRadialGradient1007)"></circle><circle r="25" cx="1272.4" cy="340.5" fill="url(#SvgjsRadialGradient1007)"></circle><circle r="25" cx="1452.28" cy="107.52" fill="url(#SvgjsRadialGradient1007)"></circle><circle r="25" cx="1390.04" cy="519.1" fill="url(#SvgjsRadialGradient1007)"></circle><circle r="25" cx="1544.27" cy="42.56" fill="url(#SvgjsRadialGradient1007)"></circle><circle r="5" cx="-90.02" cy="519.61" fill="#9881ca"></circle><circle r="5" cx="-94.92" cy="650.15" fill="#9881ca"></circle><circle r="5" cx="93.81" cy="711.78" fill="#9881ca"></circle><circle r="5" cx="217.85" cy="524.96" fill="#9881ca"></circle><circle r="5" cx="221.85" cy="682.82" fill="#9881ca"></circle><circle r="5" cx="371.59" cy="553.51" fill="#9881ca"></circle><circle r="5" cx="346.15" cy="709.17" fill="#9881ca"></circle><circle r="5" cx="542.69" cy="539.75" fill="#9881ca"></circle><circle r="5" cx="554.14" cy="690.22" fill="#9881ca"></circle><circle r="5" cx="638.58" cy="374.23" fill="#9881ca"></circle><circle r="5" cx="853.78" cy="372.45" fill="#9881ca"></circle><circle r="5" cx="860.11" cy="529.25" fill="#9881ca"></circle><circle r="5" cx="980.91" cy="340.64" fill="#9881ca"></circle><circle r="5" cx="1097.24" cy="500.73" fill="#9881ca"></circle><circle r="5" cx="1089.5" cy="686.37" fill="#9881ca"></circle><circle r="5" cx="1266.21" cy="-67.99" fill="#9881ca"></circle><circle r="5" cx="1293.57" cy="489.56" fill="#9881ca"></circle><circle r="5" cx="1311.41" cy="661.75" fill="#9881ca"></circle><circle r="5" cx="1415.53" cy="-51.1" fill="#9881ca"></circle><circle r="5" cx="1445.38" cy="223.04" fill="#9881ca"></circle><circle r="5" cx="1415.21" cy="351.46" fill="#9881ca"></circle><circle r="5" cx="1439.61" cy="705.69" fill="#9881ca"></circle><circle r="5" cx="1581.62" cy="-54.87" fill="#9881ca"></circle><circle r="5" cx="1538.36" cy="233.99" fill="#9881ca"></circle><circle r="5" cx="1582.08" cy="355.2" fill="#9881ca"></circle><circle r="5" cx="1544" cy="659.3" fill="#9881ca"></circle></g><defs><mask id="SvgjsMask1006"><rect width="1440" height="560" fill="#ffffff"></rect></mask><radialGradient id="SvgjsRadialGradient1007"><stop stop-color="#ffffff" offset="0.1"></stop><stop stop-color="rgba(49, 2, 149, 1)" offset="0.2"></stop><stop stop-color="rgba(49, 2, 149, 0)" offset="1"></stop></radialGradient></defs></svg>